<svg xmlns="http://www.w3.org/2000/svg" width="182" height="182" viewBox="0 0 182 182">
  <g id="Group_967" data-name="Group 967" transform="translate(-633.574 -815.816)">
    <path id="Path_1053" data-name="Path 1053" d="M687.54,938.016l7.178-7.366a38.382,38.382,0,0,1,.073-47.73c-2.451-2.459-4.8-4.81-7.275-7.294a26.873,26.873,0,0,1-16.576,5.013,24.806,24.806,0,0,1-16.476-6.51c-4.835-4.477-9.554-9.111-13.993-13.978a26.508,26.508,0,0,1,37.65-37.248c4.375,4.04,8.56,8.3,12.672,12.61,8.881,9.313,10.066,22.416,3.15,33.331-.211.333-.417.669-.516.827l7.243,7.29a38.5,38.5,0,0,1,47.868.113l6.714-6.71c-1.43-4.056-3.29-7.875-4.087-11.9a24.3,24.3,0,0,1,6.019-21.7,197.611,197.611,0,0,1,13.956-14.013,26.5,26.5,0,0,1,37.431,37.424c-4.162,4.583-8.6,8.934-13.1,13.187-9.18,8.673-22.273,9.756-32.922,2.9-.333-.214-.667-.426-.757-.483L754.525,883c10.946,15.746,10.989,31.79-.13,47.816l7.216,7.147a26.459,26.459,0,0,1,23.166-3.917,26.052,26.052,0,0,1,11.492,6.943c3.756,3.774,7.6,7.464,11.266,11.321,7.852,8.26,10.155,17.955,6.009,28.564-4.067,10.41-12.173,16.079-23.331,16.848a25.2,25.2,0,0,1-19.714-7.365q-6.115-5.849-11.982-11.954c-9.133-9.478-10.4-22.557-3.353-33.69.206-.324.4-.655.52-.852l-7.181-7.151c-15.841,11.077-31.876,11.12-47.9.041l-7.131,7.274a26.856,26.856,0,0,1,4.871,15.987,25.164,25.164,0,0,1-6.7,17.137c-4.439,4.764-9,9.439-13.812,13.823A26.5,26.5,0,0,1,640.4,953.557c4.161-4.585,8.6-8.937,13.095-13.2,9.159-8.671,22.233-9.8,32.936-3.032C686.824,937.579,687.224,937.82,687.54,938.016ZM743.412,883.1c-10.356-8.9-28.11-8.863-37.7.082.779.587,1.583,1.117,2.3,1.749a29.413,29.413,0,0,1,2.178,2.2c1.67,1.827,1.716,3.973.15,5.52s-3.742,1.517-5.5-.244c-1.4-1.4-2.62-2.976-3.944-4.5-8.941,10.086-8.932,27.951,0,37.779,1.267-1.457,2.447-2.962,3.784-4.313,1.875-1.9,4.064-1.983,5.67-.381s1.5,3.759-.337,5.693c-1.331,1.4-2.691,2.777-4.051,4.178,11.108,8.638,27.305,8.546,37.319-.343-1.474-1.35-2.992-2.625-4.374-4.033-1.739-1.77-1.761-3.938-.194-5.5s3.739-1.53,5.5.222c1.4,1.394,2.638,2.945,3.982,4.464,9.516-11.5,8.229-28.508.012-37.457-1.532,1.619-3.029,3.257-4.589,4.834-1.9,1.925-4.29,2.056-5.866.389-1.509-1.6-1.35-3.894.516-5.7C739.915,886.155,741.671,884.666,743.412,883.1Zm-56.149-18.419c5.089-6.456,4.555-16.72-1.209-23.051a197.483,197.483,0,0,0-13.981-13.961,18.66,18.66,0,0,0-25.336.6c-7.146,6.782-8.192,17.941-1.767,25.434A149.408,149.408,0,0,0,660.3,868.981c6.05,5.269,15.6,5.379,22.135.611-1.584-1.424-3.175-2.727-4.615-4.179-1.849-1.866-1.878-4.094-.227-5.673,1.575-1.508,3.726-1.471,5.508.286C684.563,861.471,685.853,863.093,687.263,864.683Zm79.429,4.968c6.485,4.734,15.823,4.714,21.908-.529a147.614,147.614,0,0,0,15.644-15.635c5.681-6.623,5.288-16.567-.171-23.332-5.557-6.886-15.4-9.608-22.918-5.084a60.845,60.845,0,0,0-20.918,21.049c-3.5,5.885-2.506,12.312,1.286,18.656,1.817-1.945,3.334-3.677,4.966-5.291,1.832-1.81,4.129-1.852,5.686-.236,1.488,1.543,1.444,3.772-.272,5.524C770.3,866.415,768.551,867.923,766.693,869.651Zm-84.267,74.456c-6.348-5-16.43-4.651-22.676.914a173.5,173.5,0,0,0-14.476,14.472,18.623,18.623,0,0,0,.754,25.161c6.659,7,17.715,8.22,25.043,2.038a140.492,140.492,0,0,0,15.78-15.826c5.2-6.043,5.189-15.54.488-21.893-1.6,1.742-3.088,3.487-4.705,5.109-1.843,1.847-4.1,1.939-5.683.374s-1.532-3.853.311-5.681C678.891,947.158,680.666,945.686,682.426,944.107Zm79.336,4.86c-5.1,6.806-4.459,16.824,1.463,23.261,4.3,4.673,8.8,9.188,13.485,13.474a18.738,18.738,0,0,0,25.724-.429c7.012-6.722,7.952-18.079,1.526-25.509a152.23,152.23,0,0,0-15.2-15.1c-6.083-5.3-15.637-5.424-22.1-.638,1.742,1.594,3.485,3.085,5.1,4.7,1.846,1.841,1.943,4.109.384,5.691s-3.849,1.539-5.686-.3C764.836,952.489,763.354,950.724,761.761,948.966Z" fill="#fff"/>
  </g>
</svg>
