<svg xmlns="http://www.w3.org/2000/svg" width="52.928" height="52.928" viewBox="0 0 52.928 52.928">
  <g id="Group_976" data-name="Group 976" transform="translate(0 0)">
    <g id="Group_975" data-name="Group 975" transform="translate(20.244 13.074)">
      <path id="Path_1067" data-name="Path 1067" d="M76.213,115.972V128.92a.337.337,0,0,0,.338.337h4.808a.337.337,0,0,0,.337-.337V115.761h3.486a.337.337,0,0,0,.336-.309l.335-3.964a.338.338,0,0,0-.336-.366H81.7V108.31a1.193,1.193,0,0,1,1.194-1.194h2.687a.337.337,0,0,0,.337-.338v-3.964a.337.337,0,0,0-.337-.338H81.036a4.823,4.823,0,0,0-4.823,4.823v3.822h-2.4a.337.337,0,0,0-.337.338v3.964a.337.337,0,0,0,.337.337h2.4Z" transform="translate(-73.472 -102.477)" fill="#fff" fill-rule="evenodd"/>
    </g>
    <path id="Path_1068" data-name="Path 1068" d="M71.273,83.966A26.464,26.464,0,1,0,97.737,110.43,26.494,26.494,0,0,0,71.273,83.966Zm23.07,26.464a23.07,23.07,0,1,1-23.07-23.07A23.1,23.1,0,0,1,94.343,110.43Z" transform="translate(-44.809 -83.966)" fill="#fff"/>
  </g>
</svg>
