<svg xmlns="http://www.w3.org/2000/svg" width="146.512" height="160.112" viewBox="0 0 146.512 160.112">
  <g id="Group_1060" data-name="Group 1060" transform="translate(-683.555 -70.91)">
    <path id="Path_1102" data-name="Path 1102" d="M728.107,74.339a10.235,10.235,0,0,1,7.611-3.429h18.677a2.808,2.808,0,0,1,1.975,4.7l-36.939,41.046h20.414L760.6,139.529H719.431L760.6,185.276H735.718a10.243,10.243,0,0,1-7.611-3.429l-41.759-46.4a11.071,11.071,0,0,1,0-14.7Z" transform="translate(0)" fill="#fff"/>
    <path id="Path_1103" data-name="Path 1103" d="M748.2,203.023a10.242,10.242,0,0,1-7.609,3.429H721.912a2.807,2.807,0,0,1-1.972-4.7l36.937-41.046H736.465L715.71,137.831h41.167L715.71,92.084h24.881a10.242,10.242,0,0,1,7.609,3.429l41.759,46.4a11.067,11.067,0,0,1,0,14.7Z" transform="translate(37.313 24.57)" fill="#fff"/>
  </g>
</svg>
