<svg xmlns="http://www.w3.org/2000/svg" width="52.929" height="52.928" viewBox="0 0 52.929 52.928">
  <g id="Group_982" data-name="Group 982" transform="translate(0 0)">
    <g id="Group_981" data-name="Group 981" transform="translate(14.265 11.594)">
      <path id="Path_1071" data-name="Path 1071" d="M65.409,292.477h5.063v16.262H65.409Zm2.532-8.08a2.931,2.931,0,1,1-2.935,2.929,2.931,2.931,0,0,1,2.935-2.929m5.7,24.342H78.7V300.7c0-2.12.4-4.174,3.032-4.174,2.591,0,2.627,2.425,2.627,4.312v7.906h5.051V299.82c0-4.38-.943-7.745-6.061-7.745a5.314,5.314,0,0,0-4.786,2.627h-.066v-2.225H73.643Z" transform="translate(-65.006 -284.397)" fill="#fff"/>
    </g>
    <path id="Path_1072" data-name="Path 1072" d="M71.273,267.981a26.464,26.464,0,1,0,26.465,26.464A26.494,26.494,0,0,0,71.273,267.981Zm0,49.534a23.07,23.07,0,1,1,23.071-23.07A23.1,23.1,0,0,1,71.273,317.515Z" transform="translate(-44.809 -267.981)" fill="#fff"/>
  </g>
</svg>
