<svg xmlns="http://www.w3.org/2000/svg" width="174.227" height="182" viewBox="0 0 174.227 182">
  <g id="Group_1062" data-name="Group 1062" transform="translate(-405.808 -1221.474)">
    <path id="Path_1112" data-name="Path 1112" d="M613.491,1516.31c-.5-.169-1-.344-1.5-.507a10.993,10.993,0,0,1-7.728-10.4q-.053-29.127.007-58.254a10.639,10.639,0,0,1,10.7-10.784q29.309-.1,58.62,0a10.373,10.373,0,0,1,10.61,10.606q.1,29.3,0,58.61a10.925,10.925,0,0,1-7.717,10.223c-.5.162-1,.337-1.5.506Zm30.75-75q-14.13,0-28.26,0c-4.562,0-6.753,2.2-6.754,6.762q-.007,28.166,0,56.333c0,4.434,2.491,6.925,6.926,6.926q28.171.007,56.343,0c4.567,0,6.762-2.191,6.764-6.752q.008-28.256,0-56.511c0-4.564-2.2-6.754-6.759-6.757Q658.372,1441.3,644.241,1441.308Z" transform="translate(-104.216 -112.836)" fill="#05b4ef"/>
    <path id="Path_1113" data-name="Path 1113" d="M415.063,1516.311c-.5-.169-1-.344-1.5-.507a10.993,10.993,0,0,1-7.728-10.4q-.053-29.13.007-58.26a10.634,10.634,0,0,1,10.708-10.778q29.222-.1,58.446,0a10.853,10.853,0,0,1,10.781,10.782q.092,29.129.009,58.259a11,11,0,0,1-7.894,10.46c-.446.138-.886.3-1.328.448Zm-4.266-39.99q0,14.129,0,28.258c0,4.56,2.2,6.753,6.763,6.754q28.173.008,56.347,0c4.433,0,6.922-2.493,6.923-6.931q.006-28.079,0-56.16c0-4.441-2.488-6.93-6.922-6.931q-28.173-.006-56.347,0c-4.568,0-6.761,2.192-6.764,6.752Q410.789,1462.191,410.8,1476.32Z" transform="translate(0 -112.836)" fill="#05b4ef"/>
    <path id="Path_1114" data-name="Path 1114" d="M531.377,1221.474a11.81,11.81,0,0,1,8.514,3.81q13.661,13.737,27.39,27.406,6.285,6.283,12.566,12.57c5.164,5.2,5.166,11.4-.008,16.58q-19.972,19.995-39.969,39.964c-5.136,5.129-11.705,5.154-16.811.056q-20.062-20.03-40.1-40.09c-5.112-5.118-5.116-11.322-.006-16.44q20.031-20.062,40.082-40.1A11.726,11.726,0,0,1,531.377,1221.474Zm.109,99.526c1.69-.924,3.422-1.436,4.552-2.555q20.335-20.134,40.509-40.429a5.978,5.978,0,0,0-.047-8.986q-20.156-20.188-40.346-40.341c-2.988-2.982-6.415-3.01-9.389-.044q-20.261,20.21-40.475,40.467a5.932,5.932,0,0,0-.025,8.846q20.279,20.316,40.637,40.552C528.028,1319.623,529.784,1320.1,531.486,1321Z" transform="translate(-38.508)" fill="#05b4ef"/>
    <path id="Path_1115" data-name="Path 1115" d="M641.036,1485.9a12.791,12.791,0,1,1,12.784-12.756A12.777,12.777,0,0,1,641.036,1485.9Zm-.07-20.606a7.815,7.815,0,1,0,7.875,7.754A7.907,7.907,0,0,0,640.966,1465.3Z" transform="translate(-116.819 -125.444)" fill="#05b4ef"/>
    <path id="Path_1116" data-name="Path 1116" d="M707.678,1485.9a12.791,12.791,0,1,1,12.784-12.756A12.777,12.777,0,0,1,707.678,1485.9Zm-.069-4.977a7.815,7.815,0,1,0-7.756-7.874A7.909,7.909,0,0,0,707.609,1480.925Z" transform="translate(-151.82 -125.444)" fill="#05b4ef"/>
    <path id="Path_1117" data-name="Path 1117" d="M640.944,1552.177a12.615,12.615,0,1,1,12.875-12.344C653.757,1546.481,647.79,1552.2,640.944,1552.177Zm-7.729-12.733a7.823,7.823,0,0,0,15.622.548,7.816,7.816,0,0,0-15.622-.548Z" transform="translate(-116.82 -160.438)" fill="#05b4ef"/>
    <path id="Path_1118" data-name="Path 1118" d="M720.462,1539.662c.012,6.66-5.871,12.465-12.685,12.515-6.892.05-12.9-5.76-12.9-12.478a12.793,12.793,0,0,1,25.585-.036Zm-4.978-.051a7.823,7.823,0,1,0-7.8,7.589A7.824,7.824,0,0,0,715.484,1539.611Z" transform="translate(-151.822 -160.439)" fill="#05b4ef"/>
    <path id="Path_1119" data-name="Path 1119" d="M488.338,1473.5a12.793,12.793,0,1,1-25.586-.026,12.8,12.8,0,0,1,25.586.026Zm-4.978-.036a7.823,7.823,0,0,0-15.63.134,7.815,7.815,0,0,0,15.63-.134Z" transform="translate(-29.908 -125.835)" fill="#05b4ef"/>
    <path id="Path_1120" data-name="Path 1120" d="M455.036,1539.748a12.171,12.171,0,0,1-12.485,12.43,12.615,12.615,0,1,1,.077-25.228A12.456,12.456,0,0,1,455.036,1539.748Zm-4.978.01a7.6,7.6,0,0,0-7.485-7.832,7.906,7.906,0,0,0-7.79,7.827,7.606,7.606,0,0,0,7.871,7.448A7.305,7.305,0,0,0,450.058,1539.758Z" transform="translate(-12.603 -160.439)" fill="#05b4ef"/>
    <path id="Path_1121" data-name="Path 1121" d="M521.677,1539.8a12.171,12.171,0,0,1-12.54,12.375,12.615,12.615,0,1,1,.187-25.228A12.46,12.46,0,0,1,521.677,1539.8Zm-4.978-.06a7.6,7.6,0,0,0-7.5-7.816,7.9,7.9,0,0,0-7.775,7.843,7.608,7.608,0,0,0,7.886,7.432A7.306,7.306,0,0,0,516.7,1539.743Z" transform="translate(-47.604 -160.438)" fill="#05b4ef"/>
    <path id="Path_1122" data-name="Path 1122" d="M586.3,1340.574a12.62,12.62,0,1,1,12.834,12.813A12.635,12.635,0,0,1,586.3,1340.574Zm4.979.029a7.64,7.64,0,1,0,15.277.013,7.641,7.641,0,1,0-15.277-.013Z" transform="translate(-94.794 -55.846)" fill="#05b4ef"/>
    <path id="Path_1123" data-name="Path 1123" d="M564.357,1293.323a12.619,12.619,0,1,1-12.6-12.682A12.663,12.663,0,0,1,564.357,1293.323Zm-12.448-7.708a7.794,7.794,0,0,0-7.808,7.755,7.641,7.641,0,1,0,15.277.148A7.778,7.778,0,0,0,551.909,1285.614Z" transform="translate(-70.018 -31.075)" fill="#05b4ef"/>
  </g>
</svg>
