<svg id="pancakeswap-cake-logo" xmlns="http://www.w3.org/2000/svg" width="172.468" height="174.101" viewBox="0 0 172.468 174.101">
  <path id="Path_1029" data-name="Path 1029" d="M31.012,27.2a22.794,22.794,0,1,1,45.157-4.353V51.142c3.264,0,6.529-.544,9.793-.544a52.785,52.785,0,0,1,9.249.544V22.851A22.989,22.989,0,0,1,118.062,0c14.146,0,25.027,13.058,22.851,27.2l-5.985,33.188c21.218,9.249,37.54,25.571,37.54,45.7v12.513c0,16.866-10.881,31.012-26.659,40.261C130.031,168.66,109.357,174.1,85.962,174.1s-44.069-5.441-59.847-15.234C10.881,149.618,0,135.472,0,118.606V106.092c0-20.13,15.778-36.452,37-45.7Zm95.755,37.54,7.073-39.173c1.632-9.793-5.441-19.042-15.778-19.042a15.789,15.789,0,0,0-15.778,15.778V58.215a31.022,31.022,0,0,0-7.073-.544c-3.264,0-5.985-.544-9.249-.544a59.133,59.133,0,0,0-9.793.544c-2.176,0-4.9.544-7.073.544V22.851a15.687,15.687,0,1,0-31.012,3.264l7.073,39.173C22.307,73.993,7.073,89.226,7.073,106.637V119.15c0,26.659,35.364,48.422,78.889,48.422s78.889-21.763,78.889-48.422V106.637C165.4,88.682,150.162,73.449,126.767,64.744Z" fill="#fff" fill-rule="evenodd"/>
  <path id="Path_1032" data-name="Path 1032" d="M26.01,29.558c0,7.073-3.808,13.058-8.705,13.058S8.6,36.63,8.6,29.558,12.408,16.5,17.305,16.5,26.01,22.485,26.01,29.558Z" transform="translate(38.189 73.271)" fill="#fff"/>
  <path id="Path_1033" data-name="Path 1033" d="M37.11,29.558c0,7.073-3.808,13.058-8.705,13.058S19.7,36.63,19.7,29.558,23.508,16.5,28.405,16.5,37.11,22.485,37.11,29.558Z" transform="translate(87.481 73.271)" fill="#fff"/>
</svg>
