<svg xmlns="http://www.w3.org/2000/svg" width="80.836" height="85.809" viewBox="0 0 80.836 85.809">
  <g id="Group_971" data-name="Group 971" transform="translate(-307.225 -295.673)">
    <path id="Path_1060" data-name="Path 1060" d="M331.213,381.482a7.455,7.455,0,0,1-3.964-2,6.953,6.953,0,0,1-1.9-5.032q.009-6.7,0-13.4v-1.011h-.948q-5.864,0-11.728,0c-3.444,0-5.448-2.01-5.45-5.469q-.006-11.853,0-23.706c0-3.483,2.022-5.484,5.531-5.488q5.78-.006,11.56,0h1.035v-1.014q0-10.848,0-21.7a6.6,6.6,0,0,1,4.958-6.725,7.761,7.761,0,0,1,1.986-.239q15.874-.022,31.748-.02a2.673,2.673,0,0,1,2.064.9q10.471,10.907,20.974,21.783a3.17,3.17,0,0,1,.973,2.376q-.032,26.805-.007,53.611a6.64,6.64,0,0,1-3.774,6.464,14.766,14.766,0,0,1-1.955.677Zm-2.5-21.45c-.019.232-.039.367-.039.5q0,7.121,0,14.243a3.717,3.717,0,0,0,.123.99c.446,1.585,1.693,2.4,3.666,2.4q24.213,0,48.426,0c2.6,0,3.863-1.25,3.863-3.842q.006-25.637,0-51.274c0-.3-.027-.592-.046-.964H364.286c-2.235,0-2.613-.383-2.613-2.648v-20.4c-.358-.017-.629-.042-.9-.042q-14.159,0-28.318,0c-2.535,0-3.777,1.264-3.778,3.826q0,10.808,0,21.616v.927H329.8q13.154,0,26.308,0c3.526,0,5.56,2.036,5.562,5.568q.007,11.771,0,23.542c0,3.539-2.023,5.553-5.562,5.553q-13.154,0-26.307,0Zm5.72-3.314q10.8,0,21.607,0c1.827,0,2.315-.5,2.316-2.349q0-11.683,0-23.366c0-1.79-.513-2.312-2.276-2.312h-43.3c-1.759,0-2.277.522-2.277,2.315q0,11.683,0,23.365c0,1.846.5,2.346,2.322,2.346Q323.634,356.719,334.438,356.718Zm48.454-37.949L365.02,300.207v18.563Z" fill="#fff"/>
    <path id="Path_1061" data-name="Path 1061" d="M416.272,501.776V487.938c.062-.059.1-.131.142-.131,2.37.031,4.752-.07,7.106.144a4.729,4.729,0,0,1,4.114,3.689,9.938,9.938,0,0,1-.3,7.192,4.49,4.49,0,0,1-3.806,2.9C421.147,501.911,418.745,501.776,416.272,501.776Zm2.9-11.507v9.212c1.136,0,2.218.065,3.289-.016a2.327,2.327,0,0,0,2.431-2.2,18.926,18.926,0,0,0,.131-4.147,2.748,2.748,0,0,0-2.473-2.826A31.644,31.644,0,0,0,419.174,490.269Z" transform="translate(-86.161 -151.809)" fill="#fff"/>
    <path id="Path_1062" data-name="Path 1062" d="M356.456,496.349v5.345h-2.781V487.54c.537,0,1.058-.01,1.579,0,1.9.041,3.8.034,5.688.151a3.543,3.543,0,0,1,3.324,2.833c.638,2.681-.355,5.7-4.42,5.819C358.764,496.377,357.679,496.349,356.456,496.349Zm.073-2.3c1.212-.085,2.378-.1,3.522-.268a1.757,1.757,0,0,0,1.457-1.8,1.809,1.809,0,0,0-1.561-1.892c-1.12-.111-2.259-.026-3.418-.026Z" transform="translate(-36.701 -151.595)" fill="#fff"/>
    <path id="Path_1063" data-name="Path 1063" d="M494.445,487.861V490.2h-6.756v3.361h5.773v2.367h-5.811v6.019h-2.81V487.861Z" transform="translate(-140.339 -151.852)" fill="#fff"/>
  </g>
</svg>
