<svg xmlns="http://www.w3.org/2000/svg" width="175.664" height="162.164" viewBox="0 0 175.664 162.164">
  <g id="Group_961" data-name="Group 961" transform="translate(0)">
    <g id="Group_958" data-name="Group 958">
      <g id="Group_957" data-name="Group 957">
        <path id="Path_1040" data-name="Path 1040" d="M-1574.747,859.422h-46.6a4.051,4.051,0,0,1-4.051-4.051V808.627a4.051,4.051,0,0,1,4.051-4.051h46.6a4.052,4.052,0,0,1,4.052,4.051v46.745A4.052,4.052,0,0,1-1574.747,859.422Zm-42.551-8.1h38.5V812.678h-38.5Z" transform="translate(1625.4 -804.576)" fill="#fff"/>
      </g>
      <path id="Path_1041" data-name="Path 1041" d="M-1460.355,885.663a3.922,3.922,0,0,1-3.523-3.528,23.461,23.461,0,0,1-.115-3.437q-.014-1.828-.025-3.653-.022-3.654-.023-7.308c0-3.515.022-7.031.012-10.546,0-.214,0-.427,0-.641-.126-12.61-8.336-20.786-20.917-20.827q-1.434-.005-2.875,0c-3.447,0-6.894.019-10.34.039l-3.382.018c-2.615,0-15.4-.1-15.53-.1l-5.369-.042,14.813,14.909.062.054c.441.382.878.742,1.306,1.095a16.969,16.969,0,0,1,1.4,1.223,3.65,3.65,0,0,1,.077,5.187,3.657,3.657,0,0,1-2.6,1.092,3.4,3.4,0,0,1-2.385-.974c-8.042-7.846-16.058-15.865-23.823-23.834a3.149,3.149,0,0,1-.086-4.656c7.811-8.083,15.875-16.15,23.969-23.978a3.228,3.228,0,0,1,2.3-.972,3.725,3.725,0,0,1,2.653,1.182,3.606,3.606,0,0,1-.1,5.175c-.561.631-1.2,1.3-1.948,2.068l-.077.079c-.409.425-.849.881-1.33,1.386l-13,13.685h18.877l11.708-.012c2.234,0,4.437,0,6.64.017,13.093.076,23.946,8.711,26.395,21a40.365,40.365,0,0,1,.572,5.527c.151,2.608.219,5.222.264,7.834.047,2.816.059,5.632.051,8.448,0,2.247.01,4.489-.076,6.729-.052,1.34.034,2.684-.064,4.023-.09,1.225-.2,2.551-1.326,3.26A3.538,3.538,0,0,1-1460.355,885.663Z" transform="translate(1616.613 -804.595)" fill="#fff"/>
    </g>
    <g id="Group_960" data-name="Group 960" transform="translate(15.77 81.082)">
      <g id="Group_959" data-name="Group 959" transform="translate(105.19 26.236)">
        <path id="Path_1042" data-name="Path 1042" d="M-1487.417,923.4h46.6a4.051,4.051,0,0,1,4.051,4.051V974.2a4.051,4.051,0,0,1-4.051,4.052h-46.6a4.052,4.052,0,0,1-4.052-4.052V927.453A4.051,4.051,0,0,1-1487.417,923.4Zm42.552,8.1h-38.5v38.643h38.5Z" transform="translate(1491.468 -923.402)" fill="#fff"/>
      </g>
      <path id="Path_1043" data-name="Path 1043" d="M-1604.3,894.367a3.925,3.925,0,0,1,3.524,3.529,23.575,23.575,0,0,1,.115,3.436q.015,1.826.025,3.653.022,3.654.023,7.307c0,3.516-.022,7.031-.011,10.547,0,.213,0,.427,0,.64.126,12.611,8.337,20.786,20.917,20.827.956,0,1.916.005,2.875.005,3.447,0,6.894-.02,10.341-.039l3.38-.018c2.615,0,15.4.1,15.53.1l5.369.042-14.812-14.909-.062-.054c-.441-.383-.878-.743-1.306-1.095a17.269,17.269,0,0,1-1.4-1.224,3.649,3.649,0,0,1-.077-5.186,3.654,3.654,0,0,1,2.6-1.093,3.4,3.4,0,0,1,2.386.974c8.042,7.847,16.057,15.866,23.822,23.835a3.148,3.148,0,0,1,.086,4.655c-7.81,8.083-15.874,16.151-23.968,23.979a3.235,3.235,0,0,1-2.3.972,3.724,3.724,0,0,1-2.653-1.183,3.6,3.6,0,0,1,.1-5.174c.561-.631,1.2-1.3,1.948-2.069l.077-.078c.41-.425.849-.881,1.33-1.386l13.005-13.684h-18.878l-11.708.012c-2.233,0-4.437,0-6.64-.017-13.093-.077-23.946-8.712-26.394-21a40.228,40.228,0,0,1-.573-5.527c-.151-2.609-.22-5.222-.263-7.835-.048-2.815-.059-5.631-.051-8.447,0-2.247-.01-4.489.077-6.73.052-1.34-.034-2.683.064-4.022.09-1.226.2-2.551,1.325-3.26A3.539,3.539,0,0,1-1604.3,894.367Z" transform="translate(1607.939 -894.353)" fill="#fff"/>
    </g>
  </g>
</svg>
