<svg xmlns="http://www.w3.org/2000/svg" width="181.998" height="179.29" viewBox="0 0 181.998 179.29">
  <g id="Group_956" data-name="Group 956" transform="translate(0)">
    <path id="Path_1034" data-name="Path 1034" d="M-1851.932,922.174c-.565,3.246-.98,6.527-1.72,9.732a62.586,62.586,0,0,1-53.476,47.848,62.692,62.692,0,0,1-68.962-50c-7.035-34.414,16.707-68.617,51.412-74.018a61.832,61.832,0,0,1,41.842,7.84c.725.423,1.65,1.1,1.783,1.794a3.946,3.946,0,0,1-.662,2.837c-.808,1.052-2.073.865-3.237.269-2.68-1.374-5.3-2.895-8.079-4.037-33.358-13.73-71.581,7.2-77.93,42.62a57.358,57.358,0,0,0,41.556,65.912c32.166,8.676,65.224-12.086,71.107-44.974,3.618-20.223-2.352-37.608-16.9-52.072-.294-.292-.612-.562-.888-.869a2.664,2.664,0,0,1-.112-3.818,2.46,2.46,0,0,1,3.784.054,108.464,108.464,0,0,1,8.477,9.526,60.621,60.621,0,0,1,11.7,30.954,14.5,14.5,0,0,0,.3,1.525Z" transform="translate(2033.93 -800.888)" fill="#05b4ef"/>
    <path id="Path_1035" data-name="Path 1035" d="M-2037.815,955.324c-2.9-4.8-2.906-18.574-.067-22.787-2.8-5.39-2.809-18.1-.024-22.9-2.788-4.777-2.788-18.318.1-22.869-1.962-2.171-2.117-4.9-2.046-7.717.08-3.135-.01-6.274.027-9.41a8.094,8.094,0,0,1,8.182-8.257c3.076-.05,6.155-.028,9.232,0,1.934.015,3.13,1.038,3.159,2.615.029,1.633-1.208,2.684-3.249,2.7-2.84.022-5.682-.005-8.522.01-2.537.013-3.477.984-3.485,3.589q-.016,4.972,0,9.943c0,3.138.8,3.917,4.034,3.917q22.548,0,45.1.008a8.478,8.478,0,0,1,2.107.172,2.406,2.406,0,0,1,1.927,2.629,2.454,2.454,0,0,1-2.339,2.466,15.7,15.7,0,0,1-1.775.033q-22.46,0-44.92,0c-3.295,0-4.131.824-4.134,4.048q0,4.794,0,9.588c0,3.025.844,3.87,3.926,3.872q19.087.014,38.173.006a12.6,12.6,0,0,1,1.947.076,2.426,2.426,0,0,1,2.256,2.7,2.383,2.383,0,0,1-2.32,2.459,17.749,17.749,0,0,1-1.951.049q-18.909,0-37.818,0c-3.426,0-4.212.78-4.214,4.144q0,4.793,0,9.587c.005,2.885.918,3.811,3.842,3.814q19.707.015,39.416.006a11.813,11.813,0,0,1,1.772.053,2.4,2.4,0,0,1,2.2,2.384,2.363,2.363,0,0,1-1.86,2.658,9.083,9.083,0,0,1-2.285.192q-19.442.016-38.883.009c-3.526,0-4.206.7-4.207,4.284,0,3.2-.01,6.392,0,9.588.01,2.653.966,3.6,3.674,3.6q24.324.009,48.649,0c2.746,0,4.019.834,4.03,2.625s-1.331,2.7-4,2.7q-24.148,0-48.294,0c-3.313,0-4.059.749-4.062,4.062,0,3.255-.008,6.511,0,9.766.008,2.684.937,3.614,3.635,3.615q35.6.005,71.2,0c2.868,0,4.125.841,4.082,2.727-.04,1.813-1.259,2.6-4.037,2.6q-35.422,0-70.843,0c-6.225,0-9.357-3.153-9.359-9.4,0-3.137.057-6.274-.019-9.409A9.142,9.142,0,0,1-2037.815,955.324Z" transform="translate(2040 -801.512)" fill="#05b4ef"/>
    <path id="Path_1036" data-name="Path 1036" d="M-1912.527,969.5c-15.568-.326-28.1-5.782-38.219-16.676-1.409-1.516-1.5-3.08-.3-4.2s2.768-.931,4.175.592A45.257,45.257,0,0,0-1918.3,963.87c18.9,2.317,37.855-8.333,45.98-25.763a45.348,45.348,0,0,0-33.545-63.94,45.366,45.366,0,0,0-52.451,39.9,45.246,45.246,0,0,0,4.412,24.807c.18.373.4.73.548,1.114a2.7,2.7,0,0,1-1.218,3.628,2.7,2.7,0,0,1-3.579-1.376,49.25,49.25,0,0,1-4.972-14.534,50.578,50.578,0,0,1,27.064-54.022c30.343-15.465,67.445,3.512,72.7,37.185a50.6,50.6,0,0,1-41.955,57.948C-1907.931,969.253-1910.608,969.327-1912.527,969.5Z" transform="translate(2032.629 -802.178)" fill="#05b4ef"/>
    <path id="Path_1037" data-name="Path 1037" d="M-1914.839,895.806c.239.02.582.071.924.073,1.766.008,3.531,0,5.579,0,0-1.456-.03-2.79.007-4.121.054-1.913,1.117-3.055,2.742-3.017,1.577.037,2.514,1.115,2.565,2.979.036,1.3.044,2.6.07,3.9,0,.054.048.107.074.16,11.5,2.154,14.6,14.621,7.649,22.057,6.275,4.144,9.233,9.857,6.993,17.248-2.116,6.982-7.409,10.213-14.783,10.44,0,1.555.026,3.017-.006,4.478-.042,1.826-1.042,2.934-2.6,2.951a2.689,2.689,0,0,1-2.693-2.9c-.053-1.466-.011-2.935-.011-4.516h-6.8c0,1.576.033,3.041-.009,4.5a2.685,2.685,0,0,1-2.667,2.917c-1.543-.009-2.589-1.15-2.634-2.942-.035-1.415-.007-2.832-.007-4.53-1.35,0-2.616,0-3.882,0-2.07-.007-4.143.044-6.209-.052a2.519,2.519,0,0,1-2.554-2.624,2.5,2.5,0,0,1,2.433-2.572c.988-.091,1.99-.017,3.108-.017V901.176c-.9,0-1.767.036-2.628-.007-1.782-.089-2.941-1.171-2.93-2.678.012-1.528,1.151-2.567,2.969-2.594,2.6-.038,5.206-.007,7.808-.016.576,0,1.151-.05,1.886-.084,0-1.47-.03-2.819.007-4.164.051-1.8,1.1-2.906,2.668-2.895s2.573,1.133,2.639,2.936c.048,1.3.063,2.6.1,3.894C-1915.038,895.612-1914.97,895.654-1914.839,895.806ZM-1922,940.051c.586.042,1.1.111,1.616.109,6.028-.014,12.056,0,18.084-.074a9.269,9.269,0,0,0,9.473-9.208,9.338,9.338,0,0,0-9.594-9.3c-3.782-.025-7.565-.005-11.348-.005H-1922Zm-.039-23.873c6.353,0,12.56.182,18.748-.068,3.7-.15,6.493-3.728,6.45-7.468-.043-3.788-2.89-7.215-6.586-7.329-6.08-.187-12.17-.047-18.256-.035-.093,0-.185.123-.357.244Z" transform="translate(2029.647 -804.164)" fill="#05b4ef"/>
    <path id="Path_1038" data-name="Path 1038" d="M-1990.735,832.039c4.951-5.523,9.805-10.933,14.654-16.348q8.224-9.186,16.441-18.378c2.514-2.805,5.021-2.943,7.832-.454,1.239,1.1,2.479,2.2,3.7,3.317,2.717,2.5,2.876,4.938.411,7.7q-11.155,12.515-22.358,24.986-6.8,7.6-13.614,15.195c-3.788,4.213-8.378,4.419-12.568.587-3.1-2.833-6.214-5.647-9.3-8.5-2.646-2.449-2.756-4.877-.372-7.56,1.256-1.415,2.521-2.824,3.83-4.19a4.681,4.681,0,0,1,6.939-.314C-1993.673,829.351-1992.254,830.673-1990.735,832.039ZM-2002,836.191c3.158,2.884,6.127,5.593,9.094,8.3,2.365,2.161,3.392,2.112,5.577-.325q17.4-19.419,34.794-38.849c.3-.336.555-.714.9-1.167l-3.865-3.45c-.483.523-.806.864-1.12,1.214q-15.563,17.377-31.126,34.753c-2,2.23-3.306,2.28-5.538.277-1.7-1.528-3.391-3.073-5.15-4.67Z" transform="translate(2036.863 -795.094)" fill="#05b4ef"/>
    <path id="Path_1039" data-name="Path 1039" d="M-1985.469,861.372h20.932c.473,0,.948-.027,1.418.014a2.623,2.623,0,0,1,2.6,2.6,2.567,2.567,0,0,1-2.676,2.688c-2.422.066-4.848.024-7.272.025h-35.477c-.533,0-1.066.019-1.6-.011a2.67,2.67,0,0,1-2.792-2.6c-.031-1.553,1.09-2.62,2.866-2.712.413-.021.827,0,1.241,0Z" transform="translate(2037.126 -801.513)" fill="#05b4ef"/>
  </g>
</svg>
