<svg xmlns="http://www.w3.org/2000/svg" width="107.356" height="120.554" viewBox="0 0 107.356 120.554">
  <g id="Group_1066" data-name="Group 1066" transform="translate(-705.433 459.029)">
    <g id="Group_1067" data-name="Group 1067" transform="translate(705.433 -422.62)">
      <path id="Path_1124" data-name="Path 1124" d="M705.433-328.986,718.48-321.5v39.544l34.285,19.823v15.069l-47.332-27Z" transform="translate(-705.433 331.211)" fill="#fff"/>
      <path id="Path_1125" data-name="Path 1125" d="M954.807-328.986,941.761-321.5v39.544l-34.285,19.823v15.069l47.332-27Z" transform="translate(-847.451 331.211)" fill="#fff"/>
      <g id="Group_1066-2" data-name="Group 1066" transform="translate(31.757 0)">
        <path id="Path_1126" data-name="Path 1126" d="M823.22-325.654l18.811-10.822,18.811,10.822-18.811,11.125Z" transform="translate(-819.984 336.476)" fill="#fff"/>
        <path id="Path_1127" data-name="Path 1127" d="M812.327-280.646l18.609,10.923v22.25l-18.609-11.074Z" transform="translate(-812.327 297.232)" fill="#fff"/>
        <path id="Path_1128" data-name="Path 1128" d="M915.872-280.646l-18.609,10.923v22.25l18.609-11.074Z" transform="translate(-872.029 297.232)" fill="#fff"/>
      </g>
    </g>
    <path id="Path_1129" data-name="Path 1129" d="M728.178-431.747l47.016-27.281,46.826,27.206-12.794,7.585L775.1-444.162,741.06-424.238Z" transform="translate(-15.988)" fill="#fff"/>
  </g>
</svg>
