<svg xmlns="http://www.w3.org/2000/svg" width="179.741" height="179.77" viewBox="0 0 179.741 179.77">
  <g id="Group_962" data-name="Group 962" transform="translate(0)">
    <path id="Path_1044" data-name="Path 1044" d="M-1692.175,937.431l4.154,4.167c-3.877,3.877-7.774,7.819-11.734,11.7a1.786,1.786,0,0,0-.4,2.528,14.9,14.9,0,0,1-7.547,20.745,14.929,14.929,0,0,1-19.969-9.456c-.133-.415-.272-.829-.433-1.32h-30.452c-.13.377-.293.824-.439,1.275a14.92,14.92,0,0,1-19.951,9.49,14.91,14.91,0,0,1-7.574-20.736,1.787,1.787,0,0,0-.4-2.528q-11.03-10.941-21.972-21.971a1.687,1.687,0,0,0-2.386-.334,14.9,14.9,0,0,1-20.776-7.462,14.958,14.958,0,0,1,9.375-20.017c.462-.151.923-.3,1.4-.463V872.589a15.173,15.173,0,0,1-10.309-7.985,14.9,14.9,0,0,1,2.776-17.28,14.746,14.746,0,0,1,17.251-2.782,2.089,2.089,0,0,0,2.978-.5c5.243-5.344,10.566-10.611,15.865-15.9.43-.429.882-.836,1.328-1.258l4.261,4.164c-5.63,5.625-11.147,11.214-16.77,16.7-1.327,1.294-1.61,2.192-.807,4.062a22.416,22.416,0,0,1,1.34,7.243c.081,1.2.334,1.717,1.417,2.142,6.321,2.477,12.615,5.022,18.916,7.549.569.228,1.126.482,1.833.788-.743,1.86-1.446,3.616-2.2,5.5l-22.292-8.9a15.705,15.705,0,0,1-9.433,6.423V903c5.464,2.112,5.934,2.431,9.511,6.508l22.208-8.863,2.235,5.529c-3.448,1.388-6.838,2.756-10.23,4.117-3.469,1.391-6.925,2.815-10.419,4.137-1.137.43-1.664.884-1.5,2.26a13.247,13.247,0,0,1-1.718,8.1,1.547,1.547,0,0,0,.272,2.238q11.168,11.067,22.236,22.235a1.542,1.542,0,0,0,2.236.268,13,13,0,0,1,7.916-1.723c1.494.166,2.162-.3,2.507-1.673a19.738,19.738,0,0,1,1.012-2.487l5.483,2.17-1.637,4.379a15.762,15.762,0,0,1,6.421,9.463h30c1.394-2.408,2.386-4.816,3.973-6.733a14.512,14.512,0,0,1,17.989-3.52,1.974,1.974,0,0,0,2.822-.479c3.754-3.834,7.579-7.6,11.382-11.382A.657.657,0,0,1-1692.175,937.431Zm-126.153-28.625a9.011,9.011,0,0,0-8.867,8.984,9.013,9.013,0,0,0,9.08,8.965,9.007,9.007,0,0,0,8.868-8.985A9.012,9.012,0,0,0-1818.328,908.806Zm36.062,53.927a9.016,9.016,0,0,0,9.094,8.952,9.007,9.007,0,0,0,8.854-9,9.014,9.014,0,0,0-9.094-8.95A9.013,9.013,0,0,0-1782.267,962.733Zm68.944,8.952a9.006,9.006,0,0,0,8.909-8.944,9.01,9.01,0,0,0-9.04-9.005,9.009,9.009,0,0,0-8.909,8.942A9.014,9.014,0,0,0-1713.322,971.685Zm-95.925-113.857a9,9,0,0,0-8.931-8.921,9.009,9.009,0,0,0-9.018,9.026,9.013,9.013,0,0,0,8.932,8.924A9.015,9.015,0,0,0-1809.247,857.828Z" transform="translate(1833.204 -797.933)" fill="#fff"/>
    <path id="Path_1045" data-name="Path 1045" d="M-1660.582,869.515v30.464a15.454,15.454,0,0,1,8.59,5.318,14.914,14.914,0,0,1-.056,18.836,14.841,14.841,0,0,1-18.256,3.884c-1.331-.685-2.044-.546-2.976.512-1.356,1.542-2.872,2.943-4.319,4.4l-4.207-4.5c1.374-1.323,2.981-2.94,4.67-4.468a1.506,1.506,0,0,0,.349-2.224,13.767,13.767,0,0,1-1.744-8.469,1.433,1.433,0,0,0-1.1-1.787c-2.5-.942-4.959-1.968-7.559-3.01l2.185-5.528,8.838,3.477a15.6,15.6,0,0,1,9.471-6.43V869.5a15.663,15.663,0,0,1-9.433-6.487l-22.333,8.908c-.75-1.872-1.455-3.628-2.221-5.537,3.823-1.534,7.509-3.016,11.2-4.491,3.239-1.3,6.473-2.6,9.725-3.857.918-.355,1.363-.746,1.231-1.891a13.516,13.516,0,0,1,1.76-8.462c.569-.983.315-1.5-.4-2.215q-11.084-11.017-22.1-22.1a1.541,1.541,0,0,0-2.222-.381,13.278,13.278,0,0,1-8.276,1.757c-1.31-.153-1.748.373-2.131,1.423-.681,1.866-1.458,3.7-2.272,5.731l-5.534-2.195,2.88-7.335a15.635,15.635,0,0,1-6.442-9.466h-30.5a15.648,15.648,0,0,1-6.442,9.423c.535,1.423,1.05,2.8,1.653,4.4l-5.269,2.1c-.226-.186-.386-.25-.405-.344-.6-2.854-2.048-3.827-5.23-3.818-7.283.021-13.49-6.355-13.98-13.569a14.968,14.968,0,0,1,12.222-15.987,15,15,0,0,1,16.9,9.849c.2.585.367,1.183.565,1.829h30.451c.156-.492.317-1.01.486-1.525a14.957,14.957,0,0,1,19.932-9.251,14.881,14.881,0,0,1,7.675,20.415,2.22,2.22,0,0,0,.543,3.13q10.847,10.724,21.583,21.557c.7.7,1.2,1.127,2.349.539,8.135-4.163,17.563-.786,20.921,7.4,3.4,8.29-.956,17.28-9.752,20.119C-1659.85,869.262-1660.144,869.366-1660.582,869.515Zm-107.935-68.642a9.011,9.011,0,0,0-8.929,8.925,9.017,9.017,0,0,0,9.022,9.025,9.013,9.013,0,0,0,8.929-8.927A9.012,9.012,0,0,0-1768.517,800.873Zm60.036,0a9.017,9.017,0,0,0-9.061,8.793,9.019,9.019,0,0,0,8.891,9.157,9.019,9.019,0,0,0,9.06-8.795A9.018,9.018,0,0,0-1708.48,800.873Zm53.82,53.941a9.011,9.011,0,0,0-9.034-9.012,9.012,9.012,0,0,0-8.918,8.937,9.018,9.018,0,0,0,9.034,9.014A9.015,9.015,0,0,0-1654.66,854.814Zm-8.948,50.888a9.013,9.013,0,0,0-9,9.042,9.011,9.011,0,0,0,8.947,8.907,9.018,9.018,0,0,0,9-9.042A9.012,9.012,0,0,0-1663.608,905.7Z" transform="translate(1828.387 -794.829)" fill="#fff"/>
    <path id="Path_1046" data-name="Path 1046" d="M-1704.3,887.059v7.594c0,4.055.052,8.111-.031,12.164a3.6,3.6,0,0,0,1.287,3.092c1.316,1.134,2.538,2.38,3.885,3.658-1.6,1.466-2.995,2.752-4.532,4.165-1.9-1.907-3.965-3.976-6.029-6.042q-4.564-4.568-9.133-9.131c-1.962-1.953-3.848-2.191-5.379-.7s-1.34,3.443.582,5.376c2.947,2.964,5.915,5.908,8.861,8.873,1.8,1.815,1.923,2.764.671,4.946a15.366,15.366,0,0,0-.391,15.529,9,9,0,0,1,1.073,6.146h-5.348c-.71-1.914-1.366-3.741-2.063-5.552a22.036,22.036,0,0,1,.822-17.955c-2.824-2.784-5.713-5.534-8.49-8.394a9.191,9.191,0,0,1-1.9-10.38,9.4,9.4,0,0,1,8.826-5.525,9.377,9.377,0,0,1,6.495,2.905c1.477,1.491,2.945,2.99,4.8,4.877V900.4q0-24.706,0-49.412c0-4.706-2.3-7-6.993-7.009a3.759,3.759,0,0,1-.561,0c-3.7-.568-6.636.06-7.854,4.286-.223.774-1.823,1.6-2.808,1.63-5.8.154-11.6.068-17.4.082a3.012,3.012,0,0,1-3.194-2.11c-.971-3.278-3.04-3.949-6.338-4.012-6.448-.123-9.315,2.357-8.773,8.927.08.98.011,1.972.011,3.069h-6.115a66.815,66.815,0,0,1,.489-8.407,11.511,11.511,0,0,1,11.272-9.42q21.335-.107,42.674.007a11.789,11.789,0,0,1,11.565,11.86c.07,9.046-.012,18.093.07,27.139a4.426,4.426,0,0,0,1.11,2.725c2.642,2.822,5.418,5.521,8.167,8.241a18.334,18.334,0,0,1,5.655,13.589c-.019,10.662-.005,21.325-.005,32.121h-5.99v-2c0-9.92-.041-19.84.02-29.76a12.888,12.888,0,0,0-4.079-9.879C-1700.927,890.574-1702.4,888.995-1704.3,887.059Z" transform="translate(1827.113 -799.006)" fill="#fff"/>
    <path id="Path_1047" data-name="Path 1047" d="M-1770.179,864.6h5.99v2.246q0,32.742,0,65.483c0,4.816,2.272,7.079,7.105,7.08q14.781.005,29.561,0h2.15v5.99h-1.482c-10.291,0-20.58.018-30.87-.006-7.252-.016-12.439-5.133-12.446-12.328q-.034-33.49-.008-66.98Z" transform="translate(1827.1 -801.586)" fill="#fff"/>
    <path id="Path_1048" data-name="Path 1048" d="M-1715.922,879.571l-4.081,3.855c-10.491-8.483-21.106-8.5-31.773.117-1.291-1.31-2.6-2.636-3.9-3.964C-1746.224,868.773-1726.457,868.049-1715.922,879.571Z" transform="translate(1825.695 -802.226)" fill="#fff"/>
    <path id="Path_1049" data-name="Path 1049" d="M-1723.927,888.326l-4.01,4c-4.526-3.564-9.084-3.691-13.757-.01l-3.83-4.274C-1740.933,882.153-1728.772,882.151-1723.927,888.326Z" transform="translate(1824.712 -803.432)" fill="#fff"/>
    <path id="Path_1050" data-name="Path 1050" d="M-1740.237,940.027v-5.86h11.746v5.86Z" transform="translate(1824.199 -808.324)" fill="#fff"/>
    <path id="Path_1051" data-name="Path 1051" d="M-1744.347,904.483v5.725h-5.823v-5.725Z" transform="translate(1825.162 -805.449)" fill="#fff"/>
    <path id="Path_1052" data-name="Path 1052" d="M-1731.128,910.285h-5.717V904.47h5.717Z" transform="translate(1823.871 -805.448)" fill="#fff"/>
  </g>
</svg>
