<svg xmlns="http://www.w3.org/2000/svg" width="208.922" height="179.29" viewBox="0 0 208.922 179.29">
  <g id="Group_1064" data-name="Group 1064" transform="translate(-348 -795.233)">
    <path id="Path_1104" data-name="Path 1104" d="M556.922,964.447a36.673,36.673,0,0,1-2.956,5.723,11.143,11.143,0,0,1-9.28,4.321q-15.5.073-31,.009c-2.435-.006-3.735-1.17-3.709-3.115s1.3-2.978,3.8-2.983c9.859-.019,19.718-.006,29.577-.01,5.268,0,7.451-2.172,7.451-7.4q0-62.319,0-124.638V833.98H354.118v9.9c0,1.02-.04,2.042.008,3.059.084,1.76-.239,3.351-2.11,3.971s-3.106-.409-4.016-1.948V805.3c3.13-8.02,6.153-10.066,14.875-10.066q89.893,0,179.787,0c.951,0,1.9,0,2.851.065a11.174,11.174,0,0,1,8.723,4.584,35.979,35.979,0,0,1,2.687,5.414Zm-6.13-136.82c0-7.016.077-13.813-.071-20.6a6.877,6.877,0,0,0-1.552-3.639c-1.454-1.912-3.678-2.042-5.921-2.041q-90.786.023-181.571.013c-.408,0-.817-.01-1.224,0-3.916.132-6.3,2.553-6.329,6.474-.026,4.216-.007,8.432-.007,12.649,0,2.355,0,4.711,0,7.146Z" fill="#fff"/>
    <path id="Path_1105" data-name="Path 1105" d="M348,914.462c.331-.319.612-.814,1-.923,1.052-.295,2.285-.818,3.188-.5.811.281,1.406,1.49,1.851,2.408a5.015,5.015,0,0,1,.076,2.016q0,48.644,0,97.287c0,5.1,2.218,7.31,7.337,7.311q67.506,0,135.012,0a26.04,26.04,0,0,1,2.648.061,2.76,2.76,0,0,1,2.723,2.772,2.815,2.815,0,0,1-2.522,3.167,9.279,9.279,0,0,1-1.825.114q-68.118.007-136.235,0c-6.932,0-10.351-2.624-13.255-10.062Z" transform="translate(0 -53.665)" fill="#fff"/>
    <path id="Path_1106" data-name="Path 1106" d="M548.056,1001.675c1.141,0,2.023-.052,2.9.011a3.141,3.141,0,0,1,3.177,3.067,3.067,3.067,0,0,1-3.2,3c-.61.032-1.224.01-1.836.01H384.666c-.612,0-1.225.021-1.836-.011a3.085,3.085,0,0,1-3.2-3,3.141,3.141,0,0,1,3.182-3.063c.873-.063,1.755-.011,2.9-.011v-2.514q0-25.807,0-51.614c0-4.941,1.836-6.795,6.724-6.8q6.732-.006,13.464,0c4.661.005,6.514,1.856,6.517,6.588q.018,25.706.005,51.411v2.769H419.6v-2.458q0-29.683,0-59.367c0-5.045,1.816-6.851,6.888-6.859,4.624-.007,9.249-.04,13.872.013,3.905.045,5.938,2.03,5.964,5.921.053,8.228.077,16.458-.056,24.684a4.734,4.734,0,0,1-1.637,3.193,2.99,2.99,0,0,1-2.931-.108,5.065,5.065,0,0,1-1.406-3.311c-.121-7.275-.062-14.552-.062-21.828,0-.73,0-1.46,0-2.316H425.859v62.469h14.378c0-.773,0-1.495,0-2.216q0-10.3,0-20.605c0-1.684.635-2.954,2.393-3.293a2.747,2.747,0,0,1,3.416,1.857,7.466,7.466,0,0,1,.285,2.408c.021,6.46.012,12.921.012,19.381,0,.744,0,1.489,0,2.409h7.158v-2.583q0-39.476,0-78.952c0-.748-.033-1.5.026-2.243.251-3.181,2.221-5.166,5.405-5.211q7.955-.112,15.911,0a5.144,5.144,0,0,1,5.366,5.031,22.154,22.154,0,0,1,.042,2.242q0,39.476,0,78.952v2.781h7.159v-2.653q0-34.784,0-69.568c0-5.469,1.743-7.22,7.18-7.221q6.426,0,12.852,0c4.749.008,6.707,1.949,6.708,6.672q.007,35.192,0,70.383v2.381h7.184v-2.412q0-19.177,0-38.354c0-5.082,1.814-6.9,6.855-6.9,4.488,0,8.976-.012,13.464,0,4.342.014,6.381,2.035,6.385,6.357q.015,19.483,0,38.966Zm-88.3-83.005v82.886H474V918.67Zm48.157,82.9V928.291H493.672v73.276Zm-101.764-.01v-54.57H391.935v54.57Zm135.63.009V960.081h-14.2v41.484Z" transform="translate(-14.421 -53.441)" fill="#fff"/>
    <path id="Path_1107" data-name="Path 1107" d="M412.4,916.235c5.779,0,11.557-.011,17.336,0,2.451.007,3.82,1.077,3.864,2.941.046,1.938-1.385,3.121-3.921,3.125q-17.54.023-35.079-.005c-2.894-.007-4.492-2.028-3.485-4.252.657-1.449,1.866-1.824,3.338-1.82C400.437,916.247,406.42,916.235,412.4,916.235Z" transform="translate(-19.52 -55.165)" fill="#fff"/>
    <path id="Path_1108" data-name="Path 1108" d="M401.192,902.846c-2.236,0-4.473.04-6.708-.011s-3.6-1.227-3.644-3.007c-.05-1.85,1.369-3.073,3.714-3.089q6.708-.043,13.417,0c2.29.017,3.587,1.124,3.623,2.956.038,1.907-1.31,3.091-3.694,3.14C405.666,902.883,403.429,902.847,401.192,902.846Z" transform="translate(-19.531 -46.27)" fill="#fff"/>
    <path id="Path_1109" data-name="Path 1109" d="M457.378,827.015a4.189,4.189,0,0,1-4.156,4.338,4.233,4.233,0,0,1-4.345-4.171,4.252,4.252,0,1,1,8.5-.168Z" transform="translate(-45.993 -12.573)" fill="#fff"/>
    <path id="Path_1110" data-name="Path 1110" d="M391.832,826.992a4.273,4.273,0,0,1-8.544.181,4.273,4.273,0,1,1,8.544-.181Z" transform="translate(-16.088 -12.57)" fill="#fff"/>
    <path id="Path_1111" data-name="Path 1111" d="M416.146,827.059a4.277,4.277,0,0,1,4.284-4.247,4.393,4.393,0,0,1,4.252,4.33,4.314,4.314,0,0,1-4.338,4.214A4.192,4.192,0,0,1,416.146,827.059Z" transform="translate(-31.07 -12.574)" fill="#fff"/>
  </g>
</svg>
