<svg xmlns="http://www.w3.org/2000/svg" width="52.928" height="52.928" viewBox="0 0 52.928 52.928">
  <g id="Group_979" data-name="Group 979" transform="translate(0 0)">
    <g id="Group_978" data-name="Group 978" transform="translate(12.795 15.255)">
      <path id="Path_1069" data-name="Path 1069" d="M201.794,108.383a11.4,11.4,0,0,1-2.779.786c.443-.075,1.081-.876,1.341-1.2a5.031,5.031,0,0,0,.908-1.668c.024-.047.038-.107-.009-.143a.16.16,0,0,0-.148.012,14.04,14.04,0,0,1-3.267,1.25.219.219,0,0,1-.226-.06,2.664,2.664,0,0,0-.285-.292,5.765,5.765,0,0,0-1.582-.969,5.512,5.512,0,0,0-2.426-.391,5.805,5.805,0,0,0-2.3.65,5.942,5.942,0,0,0-1.857,1.516,5.709,5.709,0,0,0-1.109,2.221,6,6,0,0,0-.059,2.346c.018.131.006.149-.113.131-4.485-.667-8.2-2.272-11.221-5.712-.131-.15-.2-.15-.31.011-1.32,1.98-.679,5.161.97,6.724.22.208.446.417.689.607a5.728,5.728,0,0,1-2.165-.607c-.131-.083-.2-.035-.208.113a3.408,3.408,0,0,0,.036.643,5.754,5.754,0,0,0,3.546,4.587,3.312,3.312,0,0,0,.72.22,6.415,6.415,0,0,1-2.124.066c-.155-.03-.214.047-.155.2a5.972,5.972,0,0,0,4.462,3.737c.2.035.4.035.607.083-.013.018-.025.018-.036.036-.5.764-2.238,1.333-3.048,1.615a10.914,10.914,0,0,1-4.628.593c-.249-.037-.3-.034-.369,0s-.008.1.071.166c.316.208.637.393.964.572a15.318,15.318,0,0,0,3.094,1.237c5.561,1.535,11.823.408,16-3.74,3.278-3.257,4.427-7.748,4.427-12.247,0-.176.208-.273.332-.366a11.04,11.04,0,0,0,2.227-2.264.882.882,0,0,0,.195-.434v-.024C201.956,108.311,201.9,108.332,201.794,108.383Z" transform="translate(-174.619 -105.696)" fill="#fff"/>
    </g>
    <path id="Path_1070" data-name="Path 1070" d="M182.966,84.1A26.464,26.464,0,1,0,209.43,110.56,26.494,26.494,0,0,0,182.966,84.1Zm0,49.534a23.07,23.07,0,1,1,23.071-23.07A23.1,23.1,0,0,1,182.966,133.63Z" transform="translate(-156.502 -84.096)" fill="#fff"/>
  </g>
</svg>
