<svg xmlns="http://www.w3.org/2000/svg" width="148.586" height="171.137" viewBox="0 0 148.586 171.137">
  <g id="Group_939" data-name="Group 939" transform="translate(-580.331 -397.711)">
    <g id="uniswap-uni-logo" transform="translate(580.331 397.711)">
      <path id="Path_8" data-name="Path 8" d="M65.787,44.029c-1.853-.265-1.942-.353-1.059-.441a29.116,29.116,0,0,1,8.3.706c6.355,1.5,12.092,5.384,18.182,12.18l1.589,1.853,2.295-.353a49.214,49.214,0,0,1,28.243,3.53,36.587,36.587,0,0,1,6.355,3.707,8.532,8.532,0,0,1,.618,2.471c.618,4.148.353,7.237-.971,9.62-.706,1.324-.706,1.677-.265,2.824a2.658,2.658,0,0,0,2.383,1.5c2.118,0,4.325-3.354,5.384-8.032l.441-1.853.794.883c4.5,5.031,8.032,12,8.561,16.946l.177,1.324-.794-1.147a14.9,14.9,0,0,0-4.237-4.5c-3-2.03-6.178-2.648-14.563-3.089-7.59-.441-11.915-1.059-16.152-2.471-7.237-2.383-10.944-5.472-19.506-16.858A81.125,81.125,0,0,0,83,52.767,29.94,29.94,0,0,0,65.787,44.029Z" transform="translate(-7.531 -5.107)" fill="#fff"/>
      <path id="Path_9" data-name="Path 9" d="M138.915,55.591A19.086,19.086,0,0,1,140.5,48a6.084,6.084,0,0,1,.794-1.5c.088,0-.088.618-.353,1.324a16.858,16.858,0,0,0-.353,7.767c.618,3.972.883,4.5,5.119,8.826,1.942,2.03,4.237,4.59,5.119,5.649l1.5,1.942-1.5-1.412a53.728,53.728,0,0,0-7.061-5.56c-.618-.353-.706-.353-1.147.088-.353.353-.441.883-.441,3.442-.088,3.972-.618,6.443-1.942,9-.706,1.324-.794,1.059-.177-.441.441-1.147.53-1.677.53-5.472,0-7.679-.883-9.532-6.267-12.621-1.324-.794-3.619-1.942-4.943-2.56A19.544,19.544,0,0,1,127,55.326c.177-.177,5.384,1.324,7.414,2.207,3.089,1.236,3.619,1.324,3.972,1.236C138.65,58.5,138.826,57.8,138.915,55.591Z" transform="translate(-14.905 -5.459)" fill="#fff"/>
      <path id="Path_10" data-name="Path 10" d="M69.351,68.929c-3.707-5.119-6.09-13.063-5.56-18.976l.177-1.853.883.177A20.712,20.712,0,0,1,70.5,50.395c3.53,2.118,5.119,5.031,6.62,12.268.441,2.118,1.059,4.59,1.324,5.384a31.863,31.863,0,0,0,3.53,6.355c.971,1.412.353,2.118-1.853,1.942C76.765,75.99,72.263,72.9,69.351,68.929Z" transform="translate(-7.476 -5.647)" fill="#fff"/>
      <path id="Path_11" data-name="Path 11" d="M132.254,111.713C114.778,104.653,108.6,98.563,108.6,88.236c0-1.5.088-2.736.088-2.736a16.578,16.578,0,0,1,1.5,1.147c3.53,2.824,7.5,4.06,18.535,5.649,6.443.971,10.15,1.677,13.5,2.824,10.68,3.53,17.3,10.768,18.888,20.565a35.7,35.7,0,0,1-.53,11.033c-.618,2.207-2.383,6.267-2.824,6.355-.088,0-.265-.441-.265-1.147a14.362,14.362,0,0,0-5.119-9.973C148.67,118.774,143.9,116.391,132.254,111.713Z" transform="translate(-12.745 -10.037)" fill="#fff"/>
      <path id="Path_12" data-name="Path 12" d="M116.41,117.831a20.906,20.906,0,0,0-.883-3.707l-.441-1.324.794.971a15.539,15.539,0,0,1,2.824,5.119c.618,1.677.618,2.206.618,4.943a11.26,11.26,0,0,1-.618,4.766A15.971,15.971,0,0,1,115,134.512c-3.177,3.266-7.326,5.031-13.239,5.825-1.059.088-4.06.353-6.708.53-6.62.353-11.033,1.059-15,2.471-.53.177-1.059.353-1.147.265-.177-.177,2.56-1.765,4.766-2.824,3.089-1.5,6.267-2.295,13.239-3.53a60.466,60.466,0,0,0,7.855-1.589C113.5,132.923,117.822,126.127,116.41,117.831Z" transform="translate(-9.257 -13.242)" fill="#fff"/>
      <path id="Path_13" data-name="Path 13" d="M130.2,132.581q-3.442-7.546-1.589-14.3c.177-.441.353-.883.53-.883a3.8,3.8,0,0,1,1.236.618c1.059.706,3.266,1.942,8.914,5.031,7.149,3.883,11.209,6.884,14.033,10.326A21.829,21.829,0,0,1,158,144.055a35.009,35.009,0,0,1-.441,10.5c-1.942,7.5-6.355,13.5-12.8,16.946a12.271,12.271,0,0,1-1.853.883,7.017,7.017,0,0,1,.794-1.942,17.518,17.518,0,0,0,.794-13.68c-.971-3-3-6.62-7.061-12.71C132.585,136.994,131.438,135.14,130.2,132.581Z" transform="translate(-15.018 -13.782)" fill="#fff"/>
      <path id="Path_14" data-name="Path 14" d="M55.753,163.751c6.531-5.472,14.563-9.356,21.977-10.591a32.705,32.705,0,0,1,11.386.441c4.678,1.236,8.914,3.883,11.121,7.149,2.118,3.177,3.089,5.913,4.06,12,.353,2.383.794,4.854.883,5.384.706,3.177,2.118,5.649,3.883,6.973,2.736,2.03,7.5,2.118,12.18.353a5.934,5.934,0,0,1,1.5-.441c.177.177-2.206,1.765-3.8,2.56a12.5,12.5,0,0,1-6.355,1.5c-4.237,0-7.855-2.206-10.768-6.62a49.615,49.615,0,0,1-2.913-5.825c-3.089-7.149-4.678-9.267-8.3-11.65a10.875,10.875,0,0,0-10.326-.971A6.646,6.646,0,0,0,78,174.342a9.024,9.024,0,0,0,5.031,2.648,5.385,5.385,0,0,0,6.09-5.384c0-2.118-.794-3.354-2.913-4.325-2.824-1.236-5.913.177-5.825,2.913a2.427,2.427,0,0,0,1.677,2.383c.706.353.706.353.177.265-2.56-.53-3.177-3.707-1.147-5.737,2.471-2.471,7.679-1.412,9.444,2.03a9.247,9.247,0,0,1,.177,6A8.254,8.254,0,0,1,80.643,179.9c-2.913-.794-4.148-1.589-7.679-5.207-6.178-6.355-8.561-7.59-17.387-8.914l-1.677-.265Z" transform="translate(-6.324 -17.945)" fill="#fff"/>
      <path id="Path_15" data-name="Path 15" d="M3,3.8c20.565,24.978,52.25,63.812,53.839,65.931,1.324,1.765.794,3.442-1.412,4.678A13.506,13.506,0,0,1,50.4,75.816a6.369,6.369,0,0,1-4.237-1.853c-.794-.794-4.237-5.825-12-17.917C28.243,46.778,23.212,39.1,23.124,39.011c-.353-.177-.353-.177,10.415,19.064,6.8,12.092,9,16.416,9,16.946,0,1.147-.353,1.765-1.765,3.354-2.383,2.648-3.442,5.649-4.237,11.915-.883,6.973-3.266,11.915-10.062,20.3-3.972,4.943-4.59,5.825-5.56,7.855a14.927,14.927,0,0,0-1.765,7.061,22.082,22.082,0,0,0,1.147,8.65,29.483,29.483,0,0,0,4.237,8.3c2.03,3.177,3.266,5.56,3.266,6.443,0,.706.177.706,3.354,0,7.59-1.765,13.857-4.766,17.3-8.473,2.118-2.295,2.648-3.53,2.648-6.708a7.2,7.2,0,0,0-.618-3.707c-.883-1.942-2.56-3.53-6.178-6-4.766-3.266-6.8-5.913-7.326-9.444-.441-3,.088-5.031,2.736-10.591,2.736-5.737,3.442-8.12,3.883-13.945.265-3.707.706-5.207,1.765-6.355,1.147-1.236,2.118-1.677,4.854-2.03,4.5-.618,7.414-1.765,9.709-3.972a8.3,8.3,0,0,0,3-6.443l.088-2.03L61.87,67.961C57.722,63.195.264,0,0,0-.089,0,1.323,1.677,3,3.8ZM30.1,129.3a3.644,3.644,0,0,0-1.147-4.854c-1.5-.971-3.8-.53-3.8.794a.9.9,0,0,0,.706.883c.794.441.883.883.265,1.853s-.618,1.853.177,2.471C27.537,131.42,29.214,130.89,30.1,129.3Z" transform="translate(0.004)" fill="#fff" fill-rule="evenodd"/>
      <path id="Path_16" data-name="Path 16" d="M73.942,93.871a7.835,7.835,0,0,0-4.766,5.207c-.353,1.412-.177,3.972.441,4.766.971,1.236,1.853,1.589,4.325,1.589,4.854,0,9-2.118,9.444-4.678.441-2.118-1.412-5.031-3.972-6.355A8.972,8.972,0,0,0,73.942,93.871Zm5.649,4.413c.706-1.059.441-2.207-.883-3-2.383-1.5-6-.265-6,2.03,0,1.147,1.853,2.383,3.619,2.383A4.875,4.875,0,0,0,79.591,98.284Z" transform="translate(-8.096 -10.995)" fill="#fff" fill-rule="evenodd"/>
    </g>
  </g>
</svg>
